<mxfile host="65bd71144e">
    <diagram id="GOk83C69kKt--BzH4eYa" name="第 1 页">
        <mxGraphModel dx="1077" dy="521" grid="1" gridSize="10" guides="1" tooltips="1" connect="1" arrows="1" fold="1" page="1" pageScale="1" pageWidth="827" pageHeight="1169" math="0" shadow="0">
            <root>
                <mxCell id="0"/>
                <mxCell id="1" parent="0"/>
                <mxCell id="2" value="用户管理(user)" style="rounded=0;whiteSpace=wrap;html=1;" vertex="1" parent="1">
                    <mxGeometry x="240" y="260" width="180" height="60" as="geometry"/>
                </mxCell>
                <mxCell id="3" value="博客管理(blog)" style="rounded=0;whiteSpace=wrap;html=1;" vertex="1" parent="1">
                    <mxGeometry x="440" y="260" width="180" height="60" as="geometry"/>
                </mxCell>
                <mxCell id="4" value="Vblog功能: 博客系统" style="text;html=1;strokeColor=none;fillColor=none;align=center;verticalAlign=middle;whiteSpace=wrap;rounded=0;" vertex="1" parent="1">
                    <mxGeometry x="250" y="200" width="160" height="30" as="geometry"/>
                </mxCell>
                <mxCell id="7" value="登录管理(token)" style="rounded=0;whiteSpace=wrap;html=1;" vertex="1" parent="1">
                    <mxGeometry x="30" y="260" width="180" height="60" as="geometry"/>
                </mxCell>
            </root>
        </mxGraphModel>
    </diagram>
</mxfile>